<svg id="Layer_1" data-name="Layer 1" xmlns="http://www.w3.org/2000/svg" viewBox="0 0 400 400"><defs><style>.cls-1,.cls-20{fill:#2b2b2b;}.cls-1{fill-opacity:0.1;}.cls-2{fill:#6f7173;}.cls-3{fill:#474747;}.cls-4{fill:#4f5253;}.cls-5{fill:#594165;}.cls-6{fill:#785d87;}.cls-7{fill:#737373;}.cls-8{fill:#fce3d4;}.cls-9{fill:#c1907d;}.cls-10{fill:#f4c9b2;}.cls-11{fill:#848585;}.cls-12{fill:#8e8e8e;}.cls-13{fill:#a2a2a2;}.cls-14{fill:#cdcdcc;}.cls-15{fill:#dcdcdb;}.cls-16{fill:#734d60;}.cls-17{fill:#ffefe7;}.cls-18{fill:#9ca0a1;}.cls-19{fill:#95637c;}.cls-21{fill:none;}</style></defs><title>analysts_ENTJ_famous_real_steve_jobs</title><g id="_897661104" data-name=" 897661104"><polygon class="cls-1" points="145.04 382.53 222.32 375.82 300.19 381.94 219.85 398.91 145.04 382.53"/><polygon class="cls-2" points="229.27 368.12 225.7 384.64 243.41 388.07 257.9 385.01 253.31 367.57 241.41 356.15 229.27 368.12"/><polygon class="cls-2" points="204.42 358.51 184.66 364.25 167.76 380.56 192.28 382.3 211.25 380.3 211.72 366.87 204.42 358.51"/><polygon class="cls-3" points="167.76 380.56 167.76 384.16 211.25 384.3 211.25 380.3 167.76 380.56"/><polygon class="cls-4" points="225.7 384.64 257.9 385.01 257.9 389.49 225.7 389.49 225.7 384.64"/><polygon class="cls-5" points="211.72 366.87 184.66 364.25 177.67 336.03 197.47 314.33 209.42 338.12 211.72 366.87"/><polygon id="XMLID_81_0" data-name="XMLID 81  0" class="cls-6" points="177.67 336.03 165.73 287.83 222.68 291.36 207.01 307.96 209.42 338.12 177.67 336.03"/><polygon class="cls-5" points="253.31 367.57 229.27 368.12 218.95 338.12 234.69 301.72 251.71 334.92 253.31 367.57"/><polygon class="cls-6" points="251.71 334.92 218.95 338.12 207.01 307.96 219.38 281.46 249.58 292.85 251.71 334.92"/><polygon class="cls-5" points="248.71 275.81 249.58 292.85 207.01 307.96 165.73 287.83 163.54 266.97 171.43 261.67 244.94 267.32 248.71 275.81"/><polygon class="cls-4" points="268.85 192.52 258.49 176.5 250.95 178.5 248 217.26 253.31 223.74 271.1 242.23 283.58 215.14 268.85 192.52"/><polygon class="cls-7" points="302.78 232.93 271.1 242.23 270.27 222.68 281.58 212.19 295.12 211.84 302.78 232.93"/><polygon class="cls-4" points="270.27 222.68 269.8 211.96 278.87 200.06 292.18 203.71 295.25 211.72 270.27 222.68"/><polygon class="cls-8" points="284.29 182.39 292.18 203.71 269.8 211.96 268.38 181.44 277.93 177.79 284.29 182.39"/><polygon class="cls-9" points="280.87 154.12 281.7 161.42 281.11 174.02 277.93 177.79 274.28 172.49 274.86 156.47 280.87 154.12"/><polygon class="cls-10" points="300.66 172.02 284.29 182.39 268.38 181.44 281.7 161.42 289.94 158.47 300.66 172.02"/><polygon class="cls-8" points="295.72 155.29 300.66 172.02 281.7 161.42 287 143.28 295.72 155.29"/><polygon class="cls-2" points="178.85 183.8 176.14 233.63 166.96 237.99 162.72 236.93 149.64 213.49 150.11 211.6 175.44 166.72 178.85 183.8"/><polygon class="cls-11" points="134.56 237.99 166.96 237.99 150.11 211.6 135.27 210.78 130.08 224.21 134.56 237.99"/><polygon class="cls-2" points="150.11 211.6 145.28 204.06 127.37 216.08 130.08 224.21 150.11 211.6"/><polygon class="cls-8" points="133.97 186.28 145.28 204.06 127.37 216.08 119.83 193.23 126.67 187.34 133.97 186.28"/><polygon class="cls-3" points="248.71 264.5 248.71 275.81 214.43 272.27 212.19 270.39 184.98 267.44 183.57 269.09 163.54 266.97 164.6 257.43 206.19 247.89 248.71 264.5"/><polygon class="cls-12" points="214.43 272.27 183.57 269.09 183.92 255.07 214.43 259.67 214.43 272.27"/><polygon class="cls-4" points="209.25 264.62 209.13 268.15 189.1 266.03 189.34 263.08 209.25 264.62"/><polygon class="cls-4" points="248.71 264.5 164.6 257.43 175.44 166.72 230.57 201.94 248.71 264.5"/><polygon class="cls-2" points="192.17 166.37 240.7 163.54 243.53 166.72 258.49 176.5 248.71 264.5 175.44 166.72 192.17 166.37"/><polygon class="cls-10" points="190.4 164.01 186.63 145.63 188.51 24.65 251.54 28.18 246.12 97.45 258.37 104.05 246 161.89 202.65 170.02 203.36 165.66 203.24 160.71 190.4 164.01"/><polygon class="cls-13" points="234.46 47.27 239.29 25.36 263.33 36.17 264.83 75 243.88 86.14 235.28 76.84 234.46 47.27"/><polygon class="cls-9" points="232.93 140.45 222.32 166.48 202.65 168.6 192.52 164.72 189.34 160.12 185.92 147.16 232.93 140.45"/><polygon class="cls-13" points="235.28 76.84 232.22 104.99 221.02 115.59 183.33 137.15 203 150.94 232.93 140.45 244.71 99.43 250.36 79.43 235.28 76.84"/><polygon class="cls-8" points="159.06 14.17 211.84 11.22 226.21 8.51 228.57 28.18 224.56 33.25 223.74 113 196.64 145.75 154.94 148.34 141.39 104.87 144.34 38.08 159.06 14.17"/><polygon class="cls-10" points="190.87 63.17 185.57 66.12 182.62 72.83 182.62 75.42 177.91 85.67 182.62 106.17 194.64 79.31 209.25 75.89 213.02 74.13 221.26 66 201.94 61.88 190.87 63.17"/><path class="cls-10" d="M169.08,106.17l-7.54-18.85-4.95-9.54L147.75,72l-4.47-12.49,3.65-1.89,17,3.77,3.18,3.66.24,2.94,1.77,6.72,6.24,13.54Z"/><polygon class="cls-14" points="162.13 23.23 159.06 14.17 186.98 3.92 206.77 0.97 239.5 6.39 228.68 14.4 211.72 14.99 197.82 15.46 180.86 23.59 162.13 23.23"/><polygon class="cls-8" points="264.83 75 258.76 102.28 244.71 99.43 248.01 73.27 264.83 75"/><polygon class="cls-9" points="259.78 80.72 249.42 93.33 252.07 79.66 259.78 80.72"/><polygon class="cls-15" points="263.33 36.17 234.46 47.27 211.72 14.99 239.5 6.39 263.33 36.17"/><polygon class="cls-16" points="211.13 79.55 223.74 79.43 247.31 78.9 248.01 73.27 224.12 75.72 213.13 75.66 211.13 75.66 211.13 79.55"/><polygon class="cls-14" points="146.22 120.31 154.23 128.91 152.7 118.07 169.08 106.17 182.62 106.17 203 115.83 203.71 127.37 223.74 113 203 150.94 154.94 148.34 146.22 120.31"/><polygon class="cls-8" points="194.52 116.06 194.99 132.68 183.68 141.04 179.09 134.32 171.78 133.85 167.43 139.51 160.24 133.74 159.65 116.42 174.97 117.72 194.52 116.06"/><polygon class="cls-17" points="169.43 74.6 169.08 106.17 182.62 106.17 182.62 75.42 169.43 74.6"/><polygon class="cls-18" points="182.62 106.17 175.56 111 169.08 106.17 182.62 106.17"/><path class="cls-19" d="M182.62,89.09V72.83l7.9-7.42h12.37l10.24,8.72V90l-11.78,4.71Zm26.63-13.2-7.78-6.59h-9.54l-5.42,5.77.12,10.37,14.61,5.3,8.13-3.3V75.89Z"/><path class="cls-19" d="M143.63,88.15V70.59l9.9-6.36L167.19,68l2.24,3.77-.24,14.61-6.59,5h-8Zm22-3.77-.47-13-11.66-3.18-5.78,3.65-.11,13.19,7.42,2.24h6.36l4.12-2.83Z"/><polygon class="cls-19" points="168.49 79.31 175.32 75.66 182.62 79.66 183.92 76.01 175.2 71.77 166.84 75.89 168.49 79.31"/><polygon class="cls-13" points="166.13 58.81 167.19 65.06 143.4 59.52 148.11 56.34 166.13 58.81"/><polygon class="cls-13" points="185.57 66.12 186.87 60.23 212.19 60.23 221.26 66 185.57 66.12"/><polygon class="cls-9" points="258.76 102.28 255.85 115.83 244.71 99.43 258.76 102.28"/><polygon class="cls-4" points="247.08 169.04 246.38 160.12 202.06 165.19 197.7 167.54 200.76 170.61 247.08 169.04"/><polygon class="cls-12" points="202.06 165.19 200.76 170.61 188.63 166.37 189.34 160.12 202.06 165.19"/><path class="cls-20" d="M194.64,75a3.91,3.91,0,1,1-4.09,3.72A3.91,3.91,0,0,1,194.64,75Z"/><path class="cls-20" d="M157.38,73.27A3.9,3.9,0,1,1,153.3,77,3.9,3.9,0,0,1,157.38,73.27Z"/><polygon class="cls-9" points="161.18 118.89 175.2 119.83 193.11 119.36 192.64 121.37 174.85 122.19 161.42 121.01 161.18 118.89"/><polygon class="cls-10" points="107.23 182.39 119.83 193.23 133.97 186.28 129.97 176.73 120.54 167.19 107.23 182.39"/><polygon class="cls-15" points="121.72 130.67 143.28 172.85 120.89 184.15 97.22 141.98 121.72 130.67"/><polygon class="cls-7" points="127.61 170.25 130.32 171.2 131.14 174.73 128.79 176.03 125.84 174.49 125.49 172.02 127.61 170.25"/><polygon class="cls-13" points="120.78 137.03 134.32 164.95 120.07 174.61 103.11 146.1 120.78 137.03"/><polygon class="cls-8" points="105.7 157.18 118.3 155.76 121.48 183.8 107.23 182.39 105.7 157.18"/><polygon class="cls-8" points="137.62 161.89 131.14 167.07 135.03 174.49 143.28 172.85 137.62 161.89"/><polygon class="cls-9" points="133.97 186.28 143.28 172.85 130.91 179.09 133.97 186.28"/><polygon class="cls-10" points="185.8 101.11 203 115.83 195.94 103.22 185.8 101.11"/><polygon class="cls-10" points="165.31 102.28 152.7 118.07 156.59 104.75 165.31 102.28"/></g><rect class="cls-21" x="0.5" y="0.5" width="399" height="399"/></svg>